<svg xmlns="http://www.w3.org/2000/svg" xmlns:xlink="http://www.w3.org/1999/xlink" width="1140" height="624.46"><rect width="1140" height="624.46" rx="5" ry="5" class="a"/><svg y="0%" x="0%"><circle cx="20" cy="20" r="6" fill="#ff5f58"/><circle cx="40" cy="20" r="6" fill="#ffbd2e"/><circle cx="60" cy="20" r="6" fill="#18c132"/></svg><svg height="564.46" viewBox="0 0 110 56.446" width="1100" x="15" xmlns="http://www.w3.org/2000/svg" xmlns:xlink="http://www.w3.org/1999/xlink" y="50"><style>@keyframes l{0%{transform:translateX(0)}26.01%{transform:translateX(-110px)}26.02%{transform:translateX(-220px)}26.67%{transform:translateX(-440px)}29.99%{transform:translateX(-550px)}31.24%{transform:translateX(-660px)}32.89%{transform:translateX(-770px)}34.92%{transform:translateX(-880px)}36.67%{transform:translateX(-990px)}37.77%{transform:translateX(-1100px)}39.62%{transform:translateX(-1430px)}39.63%{transform:translateX(-1540px)}55.31%{transform:translateX(-1650px)}55.34%{transform:translateX(-1980px)}55.9%{transform:translateX(-2200px)}62.38%{transform:translateX(-2310px)}65.04%{transform:translateX(-2420px)}66.45%{transform:translateX(-2530px)}67.7%{transform:translateX(-2640px)}68.78%{transform:translateX(-2750px)}71.5%{transform:translateX(-2860px)}73.08%{transform:translateX(-2970px)}75.49%{transform:translateX(-3080px)}76.42%{transform:translateX(-3190px)}77.07%{transform:translateX(-3300px)}78%{transform:translateX(-3410px)}78.19%{transform:translateX(-3520px)}79.27%{transform:translateX(-3630px)}79.63%{transform:translateX(-3740px)}81.14%{transform:translateX(-3850px)}81.67%{transform:translateX(-3960px)}82.42%{transform:translateX(-4070px)}85.49%{transform:translateX(-4180px)}86.41%{transform:translateX(-4290px)}87.27%{transform:translateX(-4400px)}88.64%{transform:translateX(-4510px)}89.31%{transform:translateX(-4620px)}90.22%{transform:translateX(-4730px)}92.18%{transform:translateX(-4840px)}93.22%{transform:translateX(-4950px)}94.42%{transform:translateX(-5060px)}95.67%{transform:translateX(-5280px)}95.68%{transform:translateX(-5390px)}99.98%{transform:translateX(-5500px)}to{transform:translateX(-5720px)}}.a{fill:#282d35}.f{fill:#b9c0cb}.g{fill:#71bef2}.i{fill:#6f7783}</style><g font-size="1.67" font-family="Monaco,Consolas,Menlo,'Bitstream Vera Sans Mono','Powerline Symbols',monospace"><defs><symbol id="1">0<text y="1.67" class="f">luca@air-de-luca</text><path class="g" d="M18.036 0h4v2.171h-4z"/><text x="18.036" y="1.67" class="h"> ~</text><text x="22.044" y="1.67" class="g"></text></symbol><symbol id="2">0<text y="1.67" class="f">luca@air-de-luca</text><path class="g" d="M18.036 0h4v2.171h-4z"/><text x="18.036" y="1.67" class="h"> ~</text><text x="22.044" y="1.67" class="g"></text><text x="24.048" y="1.67" class="f">rbtc</text><text x="29.058" y="1.67" class="f">1</text><text x="31.062" y="1.67" class="i">--from</text><text x="38.076" y="1.67" class="i">USD</text><text x="42.084" y="1.67" class="i">--to</text><text x="47.094" y="1.67" class="i">BTC</text></symbol><symbol id="3">0<text y="1.67" class="f">luca@air-de-luca</text><path class="g" d="M18.036 0h4v2.171h-4z"/><text x="18.036" y="1.67" class="h"> ~</text><text x="22.044" y="1.67" class="g"></text><text x="24.048" y="1.67" class="f">rbtc</text><text x="29.058" y="1.67" class="f">1</text></symbol><symbol id="4"><text y="1.67" class="f">4104.36</text><text x="8.016" y="1.67" class="f">USD</text></symbol><symbol id="5">0<text y="1.67" class="f">luca@air-de-luca</text><path class="g" d="M18.036 0h4v2.171h-4z"/><text x="18.036" y="1.67" class="h"> ~</text><text x="22.044" y="1.67" class="g"></text><text x="24.048" y="1.67" class="f">rbtc</text><text x="29.058" y="1.67" class="i">1</text></symbol><symbol id="6">0<text y="1.67" class="f">luca@air-de-luca</text><path class="g" d="M18.036 0h4v2.171h-4z"/><text x="18.036" y="1.67" class="h"> ~</text><text x="22.044" y="1.67" class="g"></text><text x="24.048" y="1.67" class="f">rbtc</text><text x="29.058" y="1.67" class="f">1</text><text x="31.062" y="1.67" class="f">--from</text><text x="38.076" y="1.67" class="i">USD</text><text x="42.084" y="1.67" class="i">--to</text><text x="47.094" y="1.67" class="i">BTC</text></symbol><symbol id="7">0<text y="1.67" class="f">luca@air-de-luca</text><path class="g" d="M18.036 0h4v2.171h-4z"/><text x="18.036" y="1.67" class="h"> ~</text><text x="22.044" y="1.67" class="g"></text><text x="24.048" y="1.67" class="f">rbtc</text><text x="29.058" y="1.67" class="f">1</text><text x="31.062" y="1.67" class="f">--from</text><text x="38.076" y="1.67" class="f">USD</text><text x="42.084" y="1.67" class="i">--to</text><text x="47.094" y="1.67" class="i">BTC</text></symbol><symbol id="8">0<text y="1.67" class="f">luca@air-de-luca</text><path class="g" d="M18.036 0h4v2.171h-4z"/><text x="18.036" y="1.67" class="h"> ~</text><text x="22.044" y="1.67" class="g"></text><text x="24.048" y="1.67" class="f">rbtc</text><text x="29.058" y="1.67" class="f">1</text><text x="31.062" y="1.67" class="f">--from</text><text x="38.076" y="1.67" class="f">USD</text><text x="42.084" y="1.67" class="f">--to</text><text x="47.094" y="1.67" class="i">BTC</text></symbol><symbol id="9">0<text y="1.67" class="f">luca@air-de-luca</text><path class="g" d="M18.036 0h4v2.171h-4z"/><text x="18.036" y="1.67" class="h"> ~</text><text x="22.044" y="1.67" class="g"></text><text x="24.048" y="1.67" class="f">rbtc</text><text x="29.058" y="1.67" class="f">1</text><text x="31.062" y="1.67" class="f">--from</text><text x="38.076" y="1.67" class="f">USD</text><text x="42.084" y="1.67" class="f">--to</text><text x="47.094" y="1.67" class="f">BTC</text></symbol><symbol id="10"><text y="1.67" class="f">0.00024357</text><text x="11.022" y="1.67" class="f">BTC</text></symbol><symbol id="a"><path fill="transparent" d="M0 0h110v26H0z"/></symbol><symbol id="b"><path fill="#6f7683" d="M0 0h1.102v2.171H0z"/></symbol></defs><path class="a" d="M0 0h110v56.446H0z"/><g style="animation-duration:17.308068s;animation-iteration-count:infinite;animation-name:l;animation-timing-function:steps(1,end)"><svg width="5830"><svg><use xlink:href="#a"/><use xlink:href="#b" x="-.004"/></svg><svg x="110"><use xlink:href="#a"/><use xlink:href="#b" x="-.004"/></svg><svg x="220"><use xlink:href="#a"/><use xlink:href="#b" x="-.004"/></svg><svg x="330"><use xlink:href="#a"/><use xlink:href="#b" x="23.996"/><use xlink:href="#1"/></svg><svg x="440"><use xlink:href="#a"/><use xlink:href="#b" x="23.996"/><use xlink:href="#1"/></svg><svg x="550"><use xlink:href="#a"/><use xlink:href="#b" x="24.996"/>0<text y="1.67" class="f">luca@air-de-luca</text><path class="g" d="M18.036 0h4v2.171h-4z"/><text x="18.036" y="1.67" class="h"> ~</text><text x="22.044" y="1.67" class="g"></text><text x="24.048" y="1.67" class="f">r</text><text x="25.05" y="1.67" class="i">btc</text></svg><svg x="660"><use xlink:href="#a"/><use xlink:href="#b" x="25.996"/>0<text y="1.67" class="f">luca@air-de-luca</text><path class="g" d="M18.036 0h4v2.171h-4z"/><text x="18.036" y="1.67" class="h"> ~</text><text x="22.044" y="1.67" class="g"></text><text x="24.048" y="1.67" class="f">rb</text><text x="26.052" y="1.67" class="i">tc</text></svg><svg x="770"><use xlink:href="#a"/><use xlink:href="#b" x="26.996"/>0<text y="1.67" class="f">luca@air-de-luca</text><path class="g" d="M18.036 0h4v2.171h-4z"/><text x="18.036" y="1.67" class="h"> ~</text><text x="22.044" y="1.67" class="g"></text><text x="24.048" y="1.67" class="f">rbt</text><text x="27.054" y="1.67" class="i">c</text></svg><svg x="880"><use xlink:href="#a"/><use xlink:href="#b" x="27.996"/>0<text y="1.67" class="f">luca@air-de-luca</text><path class="g" d="M18.036 0h4v2.171h-4z"/><text x="18.036" y="1.67" class="h"> ~</text><text x="22.044" y="1.67" class="g"></text><text x="24.048" y="1.67" class="f">rbtc</text></svg><svg x="990"><use xlink:href="#a"/><use xlink:href="#b" x="28.996"/>0<text y="1.67" class="f">luca@air-de-luca</text><path class="g" d="M18.036 0h4v2.171h-4z"/><text x="18.036" y="1.67" class="h"> ~</text><text x="22.044" y="1.67" class="g"></text><text x="24.048" y="1.67" class="f">rbtc</text><text x="29.058" y="1.67" class="i">1</text><text x="31.062" y="1.67" class="i">--from</text><text x="38.076" y="1.67" class="i">USD</text><text x="42.084" y="1.67" class="i">--to</text><text x="47.094" y="1.67" class="i">BTC</text></svg><svg x="1100"><use xlink:href="#a"/><use xlink:href="#b" x="29.996"/><use xlink:href="#2"/></svg><svg x="1210"><use xlink:href="#a"/><use xlink:href="#b" x="29.996"/><use xlink:href="#3"/></svg><svg x="1320"><use xlink:href="#a"/><use xlink:href="#b" x="29.996"/><use xlink:href="#3"/></svg><svg x="1430"><use xlink:href="#a"/><use xlink:href="#b" x="-.004" y="2.146"/><use xlink:href="#3"/></svg><svg x="1540"><use xlink:href="#a"/><use xlink:href="#b" x="-.004" y="2.146"/><use xlink:href="#3"/></svg><svg x="1650"><use xlink:href="#a"/><use xlink:href="#b" x="-.004" y="4.317"/><use xlink:href="#3"/><use xlink:href="#4" y="2.171"/></svg><svg x="1760"><use xlink:href="#a"/><use xlink:href="#b" x="-.004" y="4.317"/><use xlink:href="#3"/><use xlink:href="#4" y="2.171"/></svg><svg x="1870"><use xlink:href="#a"/><use xlink:href="#b" x="-.004" y="4.317"/><use xlink:href="#3"/><use xlink:href="#4" y="2.171"/></svg><svg x="1980"><use xlink:href="#a"/><use xlink:href="#b" x="-.004" y="4.317"/><use xlink:href="#3"/><use xlink:href="#4" y="2.171"/></svg><svg x="2090"><use xlink:href="#a"/><use xlink:href="#b" x="23.996" y="4.317"/><use xlink:href="#3"/><use xlink:href="#4" y="2.171"/><use xlink:href="#1" y="4.342"/></svg><svg x="2200"><use xlink:href="#a"/><use xlink:href="#b" x="23.996" y="4.317"/><use xlink:href="#3"/><use xlink:href="#4" y="2.171"/><use xlink:href="#1" y="4.342"/></svg><svg x="2310"><use xlink:href="#a"/><use xlink:href="#b" x="24.996" y="4.317"/><use xlink:href="#3"/><use xlink:href="#4" y="2.171"/>0<text y="6.012" class="f">luca@air-de-luca</text><path class="g" d="M18.036 4.342h4v2.171h-4z"/><text x="18.036" y="6.012" class="h"> ~</text><text x="22.044" y="6.012" class="g"></text><text x="24.048" y="6.012" class="f">r</text><text x="25.05" y="6.012" class="i">btc</text><text x="29.058" y="6.012" class="i">1</text></svg><svg x="2420"><use xlink:href="#a"/><use xlink:href="#b" x="25.996" y="4.317"/><use xlink:href="#3"/><use xlink:href="#4" y="2.171"/>0<text y="6.012" class="f">luca@air-de-luca</text><path class="g" d="M18.036 4.342h4v2.171h-4z"/><text x="18.036" y="6.012" class="h"> ~</text><text x="22.044" y="6.012" class="g"></text><text x="24.048" y="6.012" class="f">rb</text><text x="26.052" y="6.012" class="i">tc</text><text x="29.058" y="6.012" class="i">1</text></svg><svg x="2530"><use xlink:href="#a"/><use xlink:href="#b" x="26.996" y="4.317"/><use xlink:href="#3"/><use xlink:href="#4" y="2.171"/>0<text y="6.012" class="f">luca@air-de-luca</text><path class="g" d="M18.036 4.342h4v2.171h-4z"/><text x="18.036" y="6.012" class="h"> ~</text><text x="22.044" y="6.012" class="g"></text><text x="24.048" y="6.012" class="f">rbt</text><text x="27.054" y="6.012" class="i">c</text><text x="29.058" y="6.012" class="i">1</text></svg><svg x="2640"><use xlink:href="#a"/><use xlink:href="#b" x="27.996" y="4.317"/><use xlink:href="#3"/><use xlink:href="#4" y="2.171"/><use xlink:href="#5" y="4.342"/></svg><svg x="2750"><use xlink:href="#a"/><use xlink:href="#b" x="28.996" y="4.317"/><use xlink:href="#3"/><use xlink:href="#4" y="2.171"/><use xlink:href="#5" y="4.342"/></svg><svg x="2860"><use xlink:href="#a"/><use xlink:href="#b" x="29.996" y="4.317"/><use xlink:href="#3"/><use xlink:href="#4" y="2.171"/><use xlink:href="#3" y="4.342"/></svg><svg x="2970"><use xlink:href="#a"/><use xlink:href="#b" x="30.996" y="4.317"/><use xlink:href="#3"/><use xlink:href="#4" y="2.171"/><use xlink:href="#2" y="4.342"/></svg><svg x="3080"><use xlink:href="#a"/><use xlink:href="#b" x="31.996" y="4.317"/><use xlink:href="#3"/><use xlink:href="#4" y="2.171"/>0<text y="6.012" class="f">luca@air-de-luca</text><path class="g" d="M18.036 4.342h4v2.171h-4z"/><text x="18.036" y="6.012" class="h"> ~</text><text x="22.044" y="6.012" class="g"></text><text x="24.048" y="6.012" class="f">rbtc</text><text x="29.058" y="6.012" class="f">1</text><text x="31.062" y="6.012" class="f">-</text><text x="32.064" y="6.012" class="i">-from</text><text x="38.076" y="6.012" class="i">USD</text><text x="42.084" y="6.012" class="i">--to</text><text x="47.094" y="6.012" class="i">BTC</text></svg><svg x="3190"><use xlink:href="#a"/><use xlink:href="#b" x="32.996" y="4.317"/><use xlink:href="#3"/><use xlink:href="#4" y="2.171"/>0<text y="6.012" class="f">luca@air-de-luca</text><path class="g" d="M18.036 4.342h4v2.171h-4z"/><text x="18.036" y="6.012" class="h"> ~</text><text x="22.044" y="6.012" class="g"></text><text x="24.048" y="6.012" class="f">rbtc</text><text x="29.058" y="6.012" class="f">1</text><text x="31.062" y="6.012" class="f">--</text><text x="33.066" y="6.012" class="i">from</text><text x="38.076" y="6.012" class="i">USD</text><text x="42.084" y="6.012" class="i">--to</text><text x="47.094" y="6.012" class="i">BTC</text></svg><svg x="3300"><use xlink:href="#a"/><use xlink:href="#b" x="33.996" y="4.317"/><use xlink:href="#3"/><use xlink:href="#4" y="2.171"/>0<text y="6.012" class="f">luca@air-de-luca</text><path class="g" d="M18.036 4.342h4v2.171h-4z"/><text x="18.036" y="6.012" class="h"> ~</text><text x="22.044" y="6.012" class="g"></text><text x="24.048" y="6.012" class="f">rbtc</text><text x="29.058" y="6.012" class="f">1</text><text x="31.062" y="6.012" class="f">--f</text><text x="34.068" y="6.012" class="i">rom</text><text x="38.076" y="6.012" class="i">USD</text><text x="42.084" y="6.012" class="i">--to</text><text x="47.094" y="6.012" class="i">BTC</text></svg><svg x="3410"><use xlink:href="#a"/><use xlink:href="#b" x="34.996" y="4.317"/><use xlink:href="#3"/><use xlink:href="#4" y="2.171"/>0<text y="6.012" class="f">luca@air-de-luca</text><path class="g" d="M18.036 4.342h4v2.171h-4z"/><text x="18.036" y="6.012" class="h"> ~</text><text x="22.044" y="6.012" class="g"></text><text x="24.048" y="6.012" class="f">rbtc</text><text x="29.058" y="6.012" class="f">1</text><text x="31.062" y="6.012" class="f">--fr</text><text x="35.07" y="6.012" class="i">om</text><text x="38.076" y="6.012" class="i">USD</text><text x="42.084" y="6.012" class="i">--to</text><text x="47.094" y="6.012" class="i">BTC</text></svg><svg x="3520"><use xlink:href="#a"/><use xlink:href="#b" x="35.996" y="4.317"/><use xlink:href="#3"/><use xlink:href="#4" y="2.171"/>0<text y="6.012" class="f">luca@air-de-luca</text><path class="g" d="M18.036 4.342h4v2.171h-4z"/><text x="18.036" y="6.012" class="h"> ~</text><text x="22.044" y="6.012" class="g"></text><text x="24.048" y="6.012" class="f">rbtc</text><text x="29.058" y="6.012" class="f">1</text><text x="31.062" y="6.012" class="f">--fro</text><text x="36.072" y="6.012" class="i">m</text><text x="38.076" y="6.012" class="i">USD</text><text x="42.084" y="6.012" class="i">--to</text><text x="47.094" y="6.012" class="i">BTC</text></svg><svg x="3630"><use xlink:href="#a"/><use xlink:href="#b" x="36.996" y="4.317"/><use xlink:href="#3"/><use xlink:href="#4" y="2.171"/><use xlink:href="#6" y="4.342"/></svg><svg x="3740"><use xlink:href="#a"/><use xlink:href="#b" x="37.996" y="4.317"/><use xlink:href="#3"/><use xlink:href="#4" y="2.171"/><use xlink:href="#6" y="4.342"/></svg><svg x="3850"><use xlink:href="#a"/><use xlink:href="#b" x="38.996" y="4.317"/><use xlink:href="#3"/><use xlink:href="#4" y="2.171"/>0<text y="6.012" class="f">luca@air-de-luca</text><path class="g" d="M18.036 4.342h4v2.171h-4z"/><text x="18.036" y="6.012" class="h"> ~</text><text x="22.044" y="6.012" class="g"></text><text x="24.048" y="6.012" class="f">rbtc</text><text x="29.058" y="6.012" class="f">1</text><text x="31.062" y="6.012" class="f">--from</text><text x="38.076" y="6.012" class="f">U</text><text x="39.078" y="6.012" class="i">SD</text><text x="42.084" y="6.012" class="i">--to</text><text x="47.094" y="6.012" class="i">BTC</text></svg><svg x="3960"><use xlink:href="#a"/><use xlink:href="#b" x="39.996" y="4.317"/><use xlink:href="#3"/><use xlink:href="#4" y="2.171"/>0<text y="6.012" class="f">luca@air-de-luca</text><path class="g" d="M18.036 4.342h4v2.171h-4z"/><text x="18.036" y="6.012" class="h"> ~</text><text x="22.044" y="6.012" class="g"></text><text x="24.048" y="6.012" class="f">rbtc</text><text x="29.058" y="6.012" class="f">1</text><text x="31.062" y="6.012" class="f">--from</text><text x="38.076" y="6.012" class="f">US</text><text x="40.08" y="6.012" class="i">D</text><text x="42.084" y="6.012" class="i">--to</text><text x="47.094" y="6.012" class="i">BTC</text></svg><svg x="4070"><use xlink:href="#a"/><use xlink:href="#b" x="40.996" y="4.317"/><use xlink:href="#3"/><use xlink:href="#4" y="2.171"/><use xlink:href="#7" y="4.342"/></svg><svg x="4180"><use xlink:href="#a"/><use xlink:href="#b" x="41.996" y="4.317"/><use xlink:href="#3"/><use xlink:href="#4" y="2.171"/><use xlink:href="#7" y="4.342"/></svg><svg x="4290"><use xlink:href="#a"/><use xlink:href="#b" x="42.996" y="4.317"/><use xlink:href="#3"/><use xlink:href="#4" y="2.171"/>0<text y="6.012" class="f">luca@air-de-luca</text><path class="g" d="M18.036 4.342h4v2.171h-4z"/><text x="18.036" y="6.012" class="h"> ~</text><text x="22.044" y="6.012" class="g"></text><text x="24.048" y="6.012" class="f">rbtc</text><text x="29.058" y="6.012" class="f">1</text><text x="31.062" y="6.012" class="f">--from</text><text x="38.076" y="6.012" class="f">USD</text><text x="42.084" y="6.012" class="f">-</text><text x="43.086" y="6.012" class="i">-to</text><text x="47.094" y="6.012" class="i">BTC</text></svg><svg x="4400"><use xlink:href="#a"/><use xlink:href="#b" x="43.996" y="4.317"/><use xlink:href="#3"/><use xlink:href="#4" y="2.171"/>0<text y="6.012" class="f">luca@air-de-luca</text><path class="g" d="M18.036 4.342h4v2.171h-4z"/><text x="18.036" y="6.012" class="h"> ~</text><text x="22.044" y="6.012" class="g"></text><text x="24.048" y="6.012" class="f">rbtc</text><text x="29.058" y="6.012" class="f">1</text><text x="31.062" y="6.012" class="f">--from</text><text x="38.076" y="6.012" class="f">USD</text><text x="42.084" y="6.012" class="f">--</text><text x="44.088" y="6.012" class="i">to</text><text x="47.094" y="6.012" class="i">BTC</text></svg><svg x="4510"><use xlink:href="#a"/><use xlink:href="#b" x="44.996" y="4.317"/><use xlink:href="#3"/><use xlink:href="#4" y="2.171"/>0<text y="6.012" class="f">luca@air-de-luca</text><path class="g" d="M18.036 4.342h4v2.171h-4z"/><text x="18.036" y="6.012" class="h"> ~</text><text x="22.044" y="6.012" class="g"></text><text x="24.048" y="6.012" class="f">rbtc</text><text x="29.058" y="6.012" class="f">1</text><text x="31.062" y="6.012" class="f">--from</text><text x="38.076" y="6.012" class="f">USD</text><text x="42.084" y="6.012" class="f">--t</text><text x="45.09" y="6.012" class="i">o</text><text x="47.094" y="6.012" class="i">BTC</text></svg><svg x="4620"><use xlink:href="#a"/><use xlink:href="#b" x="45.996" y="4.317"/><use xlink:href="#3"/><use xlink:href="#4" y="2.171"/><use xlink:href="#8" y="4.342"/></svg><svg x="4730"><use xlink:href="#a"/><use xlink:href="#b" x="46.996" y="4.317"/><use xlink:href="#3"/><use xlink:href="#4" y="2.171"/><use xlink:href="#8" y="4.342"/></svg><svg x="4840"><use xlink:href="#a"/><use xlink:href="#b" x="47.996" y="4.317"/><use xlink:href="#3"/><use xlink:href="#4" y="2.171"/>0<text y="6.012" class="f">luca@air-de-luca</text><path class="g" d="M18.036 4.342h4v2.171h-4z"/><text x="18.036" y="6.012" class="h"> ~</text><text x="22.044" y="6.012" class="g"></text><text x="24.048" y="6.012" class="f">rbtc</text><text x="29.058" y="6.012" class="f">1</text><text x="31.062" y="6.012" class="f">--from</text><text x="38.076" y="6.012" class="f">USD</text><text x="42.084" y="6.012" class="f">--to</text><text x="47.094" y="6.012" class="f">B</text><text x="48.096" y="6.012" class="i">TC</text></svg><svg x="4950"><use xlink:href="#a"/><use xlink:href="#b" x="48.996" y="4.317"/><use xlink:href="#3"/><use xlink:href="#4" y="2.171"/>0<text y="6.012" class="f">luca@air-de-luca</text><path class="g" d="M18.036 4.342h4v2.171h-4z"/><text x="18.036" y="6.012" class="h"> ~</text><text x="22.044" y="6.012" class="g"></text><text x="24.048" y="6.012" class="f">rbtc</text><text x="29.058" y="6.012" class="f">1</text><text x="31.062" y="6.012" class="f">--from</text><text x="38.076" y="6.012" class="f">USD</text><text x="42.084" y="6.012" class="f">--to</text><text x="47.094" y="6.012" class="f">BT</text><text x="49.098" y="6.012" class="i">C</text></svg><svg x="5060"><use xlink:href="#a"/><use xlink:href="#b" x="49.996" y="4.317"/><use xlink:href="#3"/><use xlink:href="#4" y="2.171"/><use xlink:href="#9" y="4.342"/></svg><svg x="5170"><use xlink:href="#a"/><use xlink:href="#b" x="49.996" y="4.317"/><use xlink:href="#3"/><use xlink:href="#4" y="2.171"/><use xlink:href="#9" y="4.342"/></svg><svg x="5280"><use xlink:href="#a"/><use xlink:href="#b" x="-.004" y="6.488"/><use xlink:href="#3"/><use xlink:href="#4" y="2.171"/><use xlink:href="#9" y="4.342"/></svg><svg x="5390"><use xlink:href="#a"/><use xlink:href="#b" x="-.004" y="6.488"/><use xlink:href="#3"/><use xlink:href="#4" y="2.171"/><use xlink:href="#9" y="4.342"/></svg><svg x="5500"><use xlink:href="#a"/><use xlink:href="#b" x="-.004" y="8.659"/><use xlink:href="#3"/><use xlink:href="#4" y="2.171"/><use xlink:href="#9" y="4.342"/><use xlink:href="#10" y="6.513"/></svg><svg x="5610"><use xlink:href="#a"/><use xlink:href="#b" x="-.004" y="8.659"/><use xlink:href="#3"/><use xlink:href="#4" y="2.171"/><use xlink:href="#9" y="4.342"/><use xlink:href="#10" y="6.513"/></svg><svg x="5720"><use xlink:href="#a"/><use xlink:href="#b" x="-.004" y="8.659"/><use xlink:href="#3"/><use xlink:href="#4" y="2.171"/><use xlink:href="#9" y="4.342"/><use xlink:href="#10" y="6.513"/></svg></svg></g></g></svg></svg>